<svg data-v-423bf9ae="" xmlns="http://www.w3.org/2000/svg" viewBox="0 0 189.55982641041535 163" class="iconAbove"><!----><!----><!----><g data-v-423bf9ae="" id="def1a991-23fe-4cbb-bc04-c9f3b1e27f39" fill="white" transform="matrix(4.761314392089844,0,0,4.761314392089844,-5.040297508239746,88.0093002319336)"><path d="M1.39 13.09L1.39 13.09Q1.25 13.09 1.16 13.00L1.16 13.00L1.16 13.00Q1.06 12.91 1.06 12.77L1.06 12.77L1.06 3.47L1.06 3.47Q1.06 3.32 1.16 3.23L1.16 3.23L1.16 3.23Q1.25 3.15 1.39 3.15L1.39 3.15L2.03 3.15L2.03 3.15Q2.18 3.15 2.27 3.23L2.27 3.23L2.27 3.23Q2.35 3.32 2.35 3.47L2.35 3.47L2.35 6.73L2.35 6.73Q2.76 6.22 3.31 5.94L3.31 5.94L3.31 5.94Q3.86 5.67 4.68 5.67L4.68 5.67L4.68 5.67Q6.02 5.67 6.77 6.53L6.77 6.53L6.77 6.53Q7.52 7.39 7.52 8.81L7.52 8.81L7.52 12.77L7.52 12.77Q7.52 12.91 7.43 13.00L7.43 13.00L7.43 13.00Q7.34 13.09 7.20 13.09L7.20 13.09L6.54 13.09L6.54 13.09Q6.40 13.09 6.31 13.00L6.31 13.00L6.31 13.00Q6.22 12.91 6.22 12.77L6.22 12.77L6.22 8.89L6.22 8.89Q6.22 7.88 5.73 7.32L5.73 7.32L5.73 7.32Q5.24 6.76 4.31 6.76L4.31 6.76L4.31 6.76Q3.42 6.76 2.88 7.33L2.88 7.33L2.88 7.33Q2.35 7.90 2.35 8.89L2.35 8.89L2.35 12.77L2.35 12.77Q2.35 12.91 2.26 13.00L2.26 13.00L2.26 13.00Q2.17 13.09 2.03 13.09L2.03 13.09L1.39 13.09ZM12.50 13.23L12.50 13.23Q10.96 13.23 10.13 12.36L10.13 12.36L10.13 12.36Q9.30 11.49 9.24 10.05L9.24 10.05L9.23 9.45L9.24 8.85L9.24 8.85Q9.30 7.41 10.14 6.54L10.14 6.54L10.14 6.54Q10.99 5.67 12.50 5.67L12.50 5.67L12.50 5.67Q14.01 5.67 14.86 6.54L14.86 6.54L14.86 6.54Q15.71 7.41 15.76 8.85L15.76 8.85L15.76 8.85Q15.79 9.16 15.79 9.45L15.79 9.45L15.79 9.45Q15.79 9.74 15.76 10.05L15.76 10.05L15.76 10.05Q15.71 11.49 14.88 12.36L14.88 12.36L14.88 12.36Q14.04 13.23 12.50 13.23L12.50 13.23ZM12.50 12.18L12.50 12.18Q13.40 12.18 13.92 11.61L13.92 11.61L13.92 11.61Q14.45 11.05 14.49 9.98L14.49 9.98L14.49 9.98Q14.50 9.84 14.50 9.45L14.50 9.45L14.50 9.45Q14.50 9.06 14.49 8.92L14.49 8.92L14.49 8.92Q14.45 7.85 13.92 7.29L13.92 7.29L13.92 7.29Q13.40 6.72 12.50 6.72L12.50 6.72L12.50 6.72Q11.61 6.72 11.08 7.29L11.08 7.29L11.08 7.29Q10.56 7.85 10.51 8.92L10.51 8.92L10.50 9.45L10.51 9.98L10.51 9.98Q10.56 11.05 11.08 11.61L11.08 11.61L11.08 11.61Q11.61 12.18 12.50 12.18L12.50 12.18ZM20.27 13.23L20.27 13.23Q18.94 13.23 18.21 12.37L18.21 12.37L18.21 12.37Q17.49 11.51 17.49 10.08L17.49 10.08L17.49 6.13L17.49 6.13Q17.49 5.99 17.58 5.90L17.58 5.90L17.58 5.90Q17.67 5.81 17.81 5.81L17.81 5.81L18.45 5.81L18.45 5.81Q18.59 5.81 18.68 5.90L18.68 5.90L18.68 5.90Q18.77 5.99 18.77 6.13L18.77 6.13L18.77 10.01L18.77 10.01Q18.77 12.14 20.62 12.14L20.62 12.14L20.62 12.14Q21.52 12.14 22.04 11.57L22.04 11.57L22.04 11.57Q22.57 11.00 22.57 10.01L22.57 10.01L22.57 6.13L22.57 6.13Q22.57 5.99 22.66 5.90L22.66 5.90L22.66 5.90Q22.75 5.81 22.89 5.81L22.89 5.81L23.53 5.81L23.53 5.81Q23.67 5.81 23.77 5.90L23.77 5.90L23.77 5.90Q23.86 5.99 23.86 6.13L23.86 6.13L23.86 12.77L23.86 12.77Q23.86 12.91 23.77 13.00L23.77 13.00L23.77 13.00Q23.67 13.09 23.53 13.09L23.53 13.09L22.93 13.09L22.93 13.09Q22.79 13.09 22.70 13.00L22.70 13.00L22.70 13.00Q22.61 12.91 22.61 12.77L22.61 12.77L22.61 12.14L22.61 12.14Q22.20 12.68 21.66 12.96L21.66 12.96L21.66 12.96Q21.11 13.23 20.27 13.23L20.27 13.23ZM26.28 13.09L26.28 13.09Q26.14 13.09 26.05 13.00L26.05 13.00L26.05 13.00Q25.96 12.91 25.96 12.77L25.96 12.77L25.96 6.15L25.96 6.15Q25.96 6.01 26.05 5.91L26.05 5.91L26.05 5.91Q26.14 5.81 26.28 5.81L26.28 5.81L26.87 5.81L26.87 5.81Q27.02 5.81 27.11 5.90L27.11 5.90L27.11 5.90Q27.20 5.99 27.20 6.15L27.20 6.15L27.20 6.76L27.20 6.76Q27.78 5.81 29.15 5.81L29.15 5.81L29.69 5.81L29.69 5.81Q29.85 5.81 29.93 5.89L29.93 5.89L29.93 5.89Q30.02 5.98 30.02 6.13L30.02 6.13L30.02 6.65L30.02 6.65Q30.02 6.79 29.93 6.88L29.93 6.88L29.93 6.88Q29.85 6.97 29.69 6.97L29.69 6.97L28.90 6.97L28.90 6.97Q28.13 6.97 27.68 7.42L27.68 7.42L27.68 7.42Q27.24 7.87 27.24 8.64L27.24 8.64L27.24 12.77L27.24 12.77Q27.24 12.91 27.15 13.00L27.15 13.00L27.15 13.00Q27.05 13.09 26.91 13.09L26.91 13.09L26.28 13.09ZM31.56 13.09L31.56 13.09Q31.42 13.09 31.32 13.00L31.32 13.00L31.32 13.00Q31.23 12.91 31.23 12.77L31.23 12.77L31.23 3.47L31.23 3.47Q31.23 3.32 31.32 3.23L31.32 3.23L31.32 3.23Q31.42 3.15 31.56 3.15L31.56 3.15L32.17 3.15L32.17 3.15Q32.31 3.15 32.40 3.24L32.40 3.24L32.40 3.24Q32.49 3.33 32.49 3.47L32.49 3.47L32.49 12.77L32.49 12.77Q32.49 12.91 32.40 13.00L32.40 13.00L32.40 13.00Q32.31 13.09 32.17 13.09L32.17 13.09L31.56 13.09ZM35.87 15.75L35.87 15.75Q35.74 15.75 35.66 15.67L35.66 15.67L35.66 15.67Q35.57 15.58 35.57 15.47L35.57 15.47L35.57 15.47Q35.57 15.43 35.64 15.22L35.64 15.22L36.74 12.66L34.06 6.34L34.06 6.34Q33.98 6.17 33.98 6.10L33.98 6.10L33.98 6.10Q33.99 5.98 34.08 5.89L34.08 5.89L34.08 5.89Q34.16 5.81 34.27 5.81L34.27 5.81L34.92 5.81L34.92 5.81Q35.14 5.81 35.25 6.03L35.25 6.03L37.41 11.19L39.62 6.03L39.62 6.03Q39.73 5.81 39.96 5.81L39.96 5.81L40.59 5.81L40.59 5.81Q40.70 5.81 40.78 5.89L40.78 5.89L40.78 5.89Q40.87 5.98 40.87 6.09L40.87 6.09L40.87 6.09Q40.87 6.19 40.80 6.34L40.80 6.34L36.83 15.53L36.83 15.53Q36.76 15.64 36.69 15.69L36.69 15.69L36.69 15.69Q36.61 15.75 36.48 15.75L36.48 15.75L35.87 15.75Z"></path></g><!----><g data-v-423bf9ae="" id="0f415715-8495-4628-bb18-31e11a2342bd" transform="matrix(1.4216079711914062,0,0,1.4216079711914062,49.844482421875,-0.14492850005626678)" stroke="none" fill="white"><path d="M60.595 57.896l-.068-.556a11.917 11.917 0 0 0-.09-.802c-.193-1.622-.64-4.751-1.066-7.765-.224-1.56-.438-3.088-.606-4.356a96.846 96.846 0 0 1-.295-2.346 14.521 14.521 0 0 0-.112-.886c-.392-2.42-1.333-3.318-4.241-4.132-2.949-.826-5.91-1.631-8.855-2.442-.777-.211-1.554-.426-2.327-.64a69.796 69.796 0 0 0-1.404-.388c-.603 1.398-5.304 15.418-5.447 15.418a4.602 4.602 0 0 1-.106-.426c-.348-1.619-1.348-7.149-1.42-7.758l-.028-.298v-.029c0-.04.009-.099.019-.13l.009-.059c.04-.09.081-.19.14-.267l.05-.068c.382-.593.783-1.202 1.165-1.815a.635.635 0 0 0 .053-.475l-.395-1.131-.149-.416a78.533 78.533 0 0 1-.466-1.336c-.05-.14-.124-.143-.289-.218-.479-.221-4.974-.221-5.329 0-.152.093-.239.078-.289.218-.149.444-.308.892-.466 1.336l-.149.416-.395 1.131a.63.63 0 0 0 .053.475c.382.612.783 1.221 1.165 1.815l.05.068c.059.078.099.177.14.267l.009.059c.009.031.019.09.019.13v.028l-.028.298c-.071.609-1.072 6.14-1.423 7.758-.05.227-.087.376-.106.426-.14 0-4.841-14.019-5.444-15.418-.466.124-.932.252-1.408.388-.771.214-1.544.426-2.318.637-2.949.814-5.91 1.619-8.865 2.445-2.908.814-3.85 1.712-4.241 4.132-.044.273-.081.569-.112.886-.062.569-.165 1.389-.295 2.358a632.274 632.274 0 0 1-.603 4.325c-.426 3.02-.876 6.158-1.069 7.783-.037.261-.071.538-.09.802l-.068.556c-.364 3.085.681 5.557 4.111 5.677 3.754.131 45.012.086 48.968 0 3.431-.073 4.474-2.589 4.111-5.675zM45.168 14.609l2.286-6.101-1.858.57-.539.165-.081.025c-.757-1.721-1.72-3.149-2.938-4.359C38.99 1.881 35.492.345 31.641.345c-1.351 0-2.759.193-4.185.573-3.622.966-6.697 3.223-8.658 6.357-1.95 3.114-2.668 6.876-2.021 10.593.591 3.395 2.403 6.501 5.102 8.746 2.676 2.225 6.031 3.451 9.447 3.451.607 0 1.22-.039 1.823-.116 3.81-.486 7.021-2.215 9.542-5.141 1.031-1.197 1.822-2.496 2.351-3.86.182-.468.118-1.222-.302-1.624-.329-.315-.817-.427-1.164-.427-.14 0-.274.017-.397.05-.559.149-.88.708-1.021 1.028A11.823 11.823 0 0 1 31.344 27c-.757 0-1.517-.075-2.26-.223a11.695 11.695 0 0 1-7.536-5.076 11.749 11.749 0 0 1-1.691-8.971c1.069-5.026 5.477-8.921 10.483-9.262.335-.023.67-.034.995-.034 3.709 0 6.83 1.509 9.276 4.485a10.263 10.263 0 0 1 1.438 2.311l-2.348.816 5.467 3.563z"></path><path d="M37.175 19.416l-2.85-3.23a2.895 2.895 0 0 0-1.201-2.777l-.362-5.942a1.289 1.289 0 0 0-2.575 0l-.363 5.942a2.895 2.895 0 0 0-1.232 2.358 2.885 2.885 0 0 0 3.522 2.81l3.313 2.731c.237.212.541.328.858.328h.001a1.291 1.291 0 0 0 1.287-1.34 1.283 1.283 0 0 0-.398-.88zm-4.443-3.649a1.26 1.26 0 0 1-2.517 0 1.26 1.26 0 0 1 2.517 0z"></path></g><!----></svg>