<svg data-v-fde0c5aa="" xmlns="http://www.w3.org/2000/svg" viewBox="0 0 300 300" class="font"><!----><defs data-v-fde0c5aa=""><!----></defs><rect data-v-fde0c5aa="" fill="transparent" x="0" y="0" width="300px" height="300px" class="logo-background-square"></rect><defs data-v-fde0c5aa=""><linearGradient data-v-fde0c5aa="" gradientTransform="rotate(25)" id="35a43c73-a210-4792-b701-39554bf552fb" x1="0%" y1="0%" x2="100%" y2="0%"><stop data-v-fde0c5aa="" offset="0%" stop-color="#5D9E02" stop-opacity="1"></stop><stop data-v-fde0c5aa="" offset="100%" stop-color="#CBDA01" stop-opacity="1"></stop></linearGradient></defs><g data-v-fde0c5aa="" id="30673c22-9d41-4c4f-9f76-f976c99736da" fill="url(#35a43c73-a210-4792-b701-39554bf552fb)" transform="matrix(5.52590274810791,0,0,5.52590274810791,34.15031397174254,97.78453689167975)"><path d="M1.39 13.09L1.39 13.09Q1.25 13.09 1.16 13.00L1.16 13.00L1.16 13.00Q1.06 12.91 1.06 12.77L1.06 12.77L1.06 3.47L1.06 3.47Q1.06 3.32 1.16 3.23L1.16 3.23L1.16 3.23Q1.25 3.15 1.39 3.15L1.39 3.15L2.03 3.15L2.03 3.15Q2.18 3.15 2.27 3.23L2.27 3.23L2.27 3.23Q2.35 3.32 2.35 3.47L2.35 3.47L2.35 6.73L2.35 6.73Q2.76 6.22 3.31 5.94L3.31 5.94L3.31 5.94Q3.86 5.67 4.68 5.67L4.68 5.67L4.68 5.67Q6.02 5.67 6.77 6.53L6.77 6.53L6.77 6.53Q7.52 7.39 7.52 8.81L7.52 8.81L7.52 12.77L7.52 12.77Q7.52 12.91 7.43 13.00L7.43 13.00L7.43 13.00Q7.34 13.09 7.20 13.09L7.20 13.09L6.54 13.09L6.54 13.09Q6.40 13.09 6.31 13.00L6.31 13.00L6.31 13.00Q6.22 12.91 6.22 12.77L6.22 12.77L6.22 8.89L6.22 8.89Q6.22 7.88 5.73 7.32L5.73 7.32L5.73 7.32Q5.24 6.76 4.31 6.76L4.31 6.76L4.31 6.76Q3.42 6.76 2.88 7.33L2.88 7.33L2.88 7.33Q2.35 7.90 2.35 8.89L2.35 8.89L2.35 12.77L2.35 12.77Q2.35 12.91 2.26 13.00L2.26 13.00L2.26 13.00Q2.17 13.09 2.03 13.09L2.03 13.09L1.39 13.09ZM12.50 13.23L12.50 13.23Q10.96 13.23 10.13 12.36L10.13 12.36L10.13 12.36Q9.30 11.49 9.24 10.05L9.24 10.05L9.23 9.45L9.24 8.85L9.24 8.85Q9.30 7.41 10.14 6.54L10.14 6.54L10.14 6.54Q10.99 5.67 12.50 5.67L12.50 5.67L12.50 5.67Q14.01 5.67 14.86 6.54L14.86 6.54L14.86 6.54Q15.71 7.41 15.76 8.85L15.76 8.85L15.76 8.85Q15.79 9.16 15.79 9.45L15.79 9.45L15.79 9.45Q15.79 9.74 15.76 10.05L15.76 10.05L15.76 10.05Q15.71 11.49 14.88 12.36L14.88 12.36L14.88 12.36Q14.04 13.23 12.50 13.23L12.50 13.23ZM12.50 12.18L12.50 12.18Q13.40 12.18 13.92 11.61L13.92 11.61L13.92 11.61Q14.45 11.05 14.49 9.98L14.49 9.98L14.49 9.98Q14.50 9.84 14.50 9.45L14.50 9.45L14.50 9.45Q14.50 9.06 14.49 8.92L14.49 8.92L14.49 8.92Q14.45 7.85 13.92 7.29L13.92 7.29L13.92 7.29Q13.40 6.72 12.50 6.72L12.50 6.72L12.50 6.72Q11.61 6.72 11.08 7.29L11.08 7.29L11.08 7.29Q10.56 7.85 10.51 8.92L10.51 8.92L10.50 9.45L10.51 9.98L10.51 9.98Q10.56 11.05 11.08 11.61L11.08 11.61L11.08 11.61Q11.61 12.18 12.50 12.18L12.50 12.18ZM20.27 13.23L20.27 13.23Q18.94 13.23 18.21 12.37L18.21 12.37L18.21 12.37Q17.49 11.51 17.49 10.08L17.49 10.08L17.49 6.13L17.49 6.13Q17.49 5.99 17.58 5.90L17.58 5.90L17.58 5.90Q17.67 5.81 17.81 5.81L17.81 5.81L18.45 5.81L18.45 5.81Q18.59 5.81 18.68 5.90L18.68 5.90L18.68 5.90Q18.77 5.99 18.77 6.13L18.77 6.13L18.77 10.01L18.77 10.01Q18.77 12.14 20.62 12.14L20.62 12.14L20.62 12.14Q21.52 12.14 22.04 11.57L22.04 11.57L22.04 11.57Q22.57 11.00 22.57 10.01L22.57 10.01L22.57 6.13L22.57 6.13Q22.57 5.99 22.66 5.90L22.66 5.90L22.66 5.90Q22.75 5.81 22.89 5.81L22.89 5.81L23.53 5.81L23.53 5.81Q23.67 5.81 23.77 5.90L23.77 5.90L23.77 5.90Q23.86 5.99 23.86 6.13L23.86 6.13L23.86 12.77L23.86 12.77Q23.86 12.91 23.77 13.00L23.77 13.00L23.77 13.00Q23.67 13.09 23.53 13.09L23.53 13.09L22.93 13.09L22.93 13.09Q22.79 13.09 22.70 13.00L22.70 13.00L22.70 13.00Q22.61 12.91 22.61 12.77L22.61 12.77L22.61 12.14L22.61 12.14Q22.20 12.68 21.66 12.96L21.66 12.96L21.66 12.96Q21.11 13.23 20.27 13.23L20.27 13.23ZM26.28 13.09L26.28 13.09Q26.14 13.09 26.05 13.00L26.05 13.00L26.05 13.00Q25.96 12.91 25.96 12.77L25.96 12.77L25.96 6.15L25.96 6.15Q25.96 6.01 26.05 5.91L26.05 5.91L26.05 5.91Q26.14 5.81 26.28 5.81L26.28 5.81L26.87 5.81L26.87 5.81Q27.02 5.81 27.11 5.90L27.11 5.90L27.11 5.90Q27.20 5.99 27.20 6.15L27.20 6.15L27.20 6.76L27.20 6.76Q27.78 5.81 29.15 5.81L29.15 5.81L29.69 5.81L29.69 5.81Q29.85 5.81 29.93 5.89L29.93 5.89L29.93 5.89Q30.02 5.98 30.02 6.13L30.02 6.13L30.02 6.65L30.02 6.65Q30.02 6.79 29.93 6.88L29.93 6.88L29.93 6.88Q29.85 6.97 29.69 6.97L29.69 6.97L28.90 6.97L28.90 6.97Q28.13 6.97 27.68 7.42L27.68 7.42L27.68 7.42Q27.24 7.87 27.24 8.64L27.24 8.64L27.24 12.77L27.24 12.77Q27.24 12.91 27.15 13.00L27.15 13.00L27.15 13.00Q27.05 13.09 26.91 13.09L26.91 13.09L26.28 13.09ZM31.56 13.09L31.56 13.09Q31.42 13.09 31.32 13.00L31.32 13.00L31.32 13.00Q31.23 12.91 31.23 12.77L31.23 12.77L31.23 3.47L31.23 3.47Q31.23 3.32 31.32 3.23L31.32 3.23L31.32 3.23Q31.42 3.15 31.56 3.15L31.56 3.15L32.17 3.15L32.17 3.15Q32.31 3.15 32.40 3.24L32.40 3.24L32.40 3.24Q32.49 3.33 32.49 3.47L32.49 3.47L32.49 12.77L32.49 12.77Q32.49 12.91 32.40 13.00L32.40 13.00L32.40 13.00Q32.31 13.09 32.17 13.09L32.17 13.09L31.56 13.09ZM35.87 15.75L35.87 15.75Q35.74 15.75 35.66 15.67L35.66 15.67L35.66 15.67Q35.57 15.58 35.57 15.47L35.57 15.47L35.57 15.47Q35.57 15.43 35.64 15.22L35.64 15.22L36.74 12.66L34.06 6.34L34.06 6.34Q33.98 6.17 33.98 6.10L33.98 6.10L33.98 6.10Q33.99 5.98 34.08 5.89L34.08 5.89L34.08 5.89Q34.16 5.81 34.27 5.81L34.27 5.81L34.92 5.81L34.92 5.81Q35.14 5.81 35.25 6.03L35.25 6.03L37.41 11.19L39.62 6.03L39.62 6.03Q39.73 5.81 39.96 5.81L39.96 5.81L40.59 5.81L40.59 5.81Q40.70 5.81 40.78 5.89L40.78 5.89L40.78 5.89Q40.87 5.98 40.87 6.09L40.87 6.09L40.87 6.09Q40.87 6.19 40.80 6.34L40.80 6.34L36.83 15.53L36.83 15.53Q36.76 15.64 36.69 15.69L36.69 15.69L36.69 15.69Q36.61 15.75 36.48 15.75L36.48 15.75L35.87 15.75Z"></path></g><!----><!----></svg>